Release info:

General
Format                                   : Matroska
Format version                           : Version 2
File size                                : 636 MiB
Duration                                 : 1h 23mn
Overall bit rate                         : 1 064 Kbps

Video
ID                                       : 1
Format                                   : AVC
Format/Info                              : Advanced Video Codec
Format profile                           : High@L3.1
Format settings, CABAC                   : Yes
Format settings, ReFrames                : 4 frames
Muxing mode                              : Header stripping
Codec ID                                 : V_MPEG4/ISO/AVC
Duration                                 : 1h 23mn
Bit rate                                 : 935 Kbps
Width                                    : 1 280 pixels
Height                                   : 720 pixels
Display aspect ratio                     : 16:9
Frame rate mode                          : Constant
Frame rate                               : 23.976 fps
Color space                              : YUV
Chroma subsampling                       : 4:2:0
Bit depth                                : 8 bits
Scan type                                : Progressive
Bits/(Pixel*Frame)                       : 0.042
Stream size                              : 547 MiB (86%)
Language                                 : English
Default                                  : Yes
Forced                                   : No

Audio
ID                                       : 2
Format                                   : MPEG Audio
Format version                           : Version 1
Format profile                           : Layer 3
Mode                                     : Joint stereo
Mode extension                           : MS Stereo
Muxing mode                              : Header stripping
Codec ID                                 : A_MPEG/L3
Codec ID/Hint                            : MP3
Duration                                 : 1h 23mn
Bit rate mode                            : Constant
Bit rate                                 : 128 Kbps
Channel(s)                               : 2 channels
Sampling rate                            : 44.1 KHz
Compression mode                         : Lossy
Stream size                              : 76.6 MiB (12%)
Language                                 : English
Default                                  : Yes
Forced                                   : No


Source:
credit to original movie ripper Ganool (Thanks)

IMDB Info:

In late summer of 2011, five young friends on a road trip went missing after being attacked by nomadic cannibals in a huge RV. Video was recorded by the victims & recovered by police as evidence in their still-unsolved murders.

Director: Brenton Spencer
Writer: John Sheppard
Stars: Mittita Barber, Aslam Husain, Victor Zinck Jr. 

Genres: Action | Horror | Mystery | Thriller
 
http://www.imdb.com/title/tt2180333/

Screen Shot:
 
http://www.shotpix.com/images/06569847229356056298.png 
http://www.shotpix.com/images/80366557734890337747.png 
http://www.shotpix.com/images/35887277197645385647.png 
http://www.shotpix.com/images/72990756032632005536.png